<svg xmlns="http://www.w3.org/2000/svg" xmlns:xlink="http://www.w3.org/1999/xlink" width="960" zoomAndPan="magnify" viewBox="0 0 720 719.999996" height="960" preserveAspectRatio="xMidYMid meet" version="1.0"><defs><clipPath id="c59b44c3a9"><path d="M 0 262.785156 L 720 262.785156 L 720 411.285156 L 0 411.285156 Z M 0 262.785156 " clip-rule="nonzero"/></clipPath></defs><g clip-path="url(#c59b44c3a9)"><path fill="#d28080" d="M 49.851562 311.328125 C 49.320312 310.800781 48.460938 310.800781 47.929688 311.332031 C 47.40625 311.859375 47.40625 312.722656 47.9375 313.25 L 47.929688 313.25 L 71.71875 337.035156 L 47.9375 360.816406 C 47.40625 361.34375 47.40625 362.203125 47.9375 362.738281 C 48.199219 363 48.546875 363.132812 48.894531 363.132812 C 49.242188 363.132812 49.589844 363 49.855469 362.738281 L 74.59375 337.992188 C 74.855469 337.734375 74.992188 337.398438 74.992188 337.035156 C 74.992188 336.671875 74.855469 336.332031 74.59375 336.078125 Z M 21.617188 316.917969 C 21.085938 316.386719 20.230469 316.386719 19.703125 316.917969 L 0.542969 336.074219 C 0.0117188 336.605469 0.0117188 337.460938 0.542969 337.992188 L 19.699219 357.152344 C 19.945312 357.398438 20.300781 357.546875 20.65625 357.546875 L 20.664062 357.546875 C 21.019531 357.546875 21.367188 357.398438 21.621094 357.152344 L 40.777344 337.992188 C 41.035156 337.738281 41.171875 337.398438 41.171875 337.035156 C 41.171875 336.671875 41.035156 336.328125 40.777344 336.074219 Z M 20.660156 354.273438 L 3.421875 337.035156 L 20.660156 319.796875 L 37.898438 337.035156 Z M 361.429688 311.40625 L 361.429688 298.964844 C 361.429688 298.210938 360.824219 297.605469 360.074219 297.605469 C 359.324219 297.605469 358.71875 298.210938 358.71875 298.964844 L 358.71875 311.40625 L 334.050781 336.074219 C 333.519531 336.605469 333.519531 337.460938 334.050781 337.992188 L 358.714844 362.660156 L 358.714844 375.105469 C 358.714844 375.859375 359.324219 376.460938 360.074219 376.460938 C 360.824219 376.460938 361.429688 375.859375 361.429688 375.105469 L 361.429688 362.660156 L 386.09375 337.992188 C 386.355469 337.734375 386.496094 337.394531 386.496094 337.035156 C 386.496094 336.671875 386.355469 336.332031 386.09375 336.074219 Z M 360.074219 360.179688 L 336.929688 337.03125 L 360.074219 313.886719 L 383.21875 337.035156 Z M 327.761719 337.035156 C 327.761719 336.652344 327.605469 336.308594 327.351562 336.0625 L 308.207031 316.917969 C 307.675781 316.386719 306.8125 316.386719 306.285156 316.917969 C 305.753906 317.449219 305.753906 318.304688 306.285156 318.835938 L 323.128906 335.679688 L 230.710938 335.679688 L 211.945312 316.917969 C 211.414062 316.386719 210.558594 316.386719 210.03125 316.917969 L 201.410156 325.539062 L 192.792969 316.914062 C 192.257812 316.382812 191.402344 316.382812 190.871094 316.914062 L 172.105469 335.679688 L 108.015625 335.679688 L 89.253906 316.917969 C 88.71875 316.386719 87.859375 316.386719 87.332031 316.917969 C 86.800781 317.449219 86.800781 318.304688 87.332031 318.835938 L 105.535156 337.035156 L 87.335938 355.230469 C 86.804688 355.757812 86.804688 356.617188 87.335938 357.152344 C 87.601562 357.414062 87.949219 357.546875 88.296875 357.546875 C 88.644531 357.546875 88.992188 357.414062 89.257812 357.152344 L 108.007812 338.390625 L 172.113281 338.390625 L 190.867188 357.148438 C 191.117188 357.398438 191.46875 357.539062 191.828125 357.539062 L 191.832031 357.539062 C 192.191406 357.539062 192.542969 357.398438 192.796875 357.148438 L 201.410156 348.53125 L 210.027344 357.152344 C 210.273438 357.398438 210.628906 357.546875 210.984375 357.546875 L 210.992188 357.546875 C 211.347656 357.546875 211.699219 357.398438 211.949219 357.152344 L 230.703125 338.390625 L 323.125 338.390625 L 306.285156 355.230469 C 305.753906 355.757812 305.753906 356.617188 306.285156 357.152344 C 306.550781 357.414062 306.898438 357.546875 307.25 357.546875 C 307.597656 357.546875 307.945312 357.414062 308.210938 357.152344 L 327.328125 338.023438 C 327.59375 337.773438 327.761719 337.425781 327.761719 337.035156 Z M 191.832031 354.273438 L 174.589844 337.03125 L 191.828125 319.792969 L 199.492188 327.457031 L 190.871094 336.074219 C 190.339844 336.605469 190.339844 337.460938 190.871094 337.992188 L 199.488281 346.613281 Z M 201.40625 344.695312 L 193.742188 337.035156 L 201.40625 329.375 L 209.066406 337.03125 Z M 210.988281 354.273438 L 203.328125 346.613281 L 211.949219 337.988281 C 212.203125 337.738281 212.34375 337.394531 212.34375 337.03125 C 212.34375 336.667969 212.203125 336.328125 211.949219 336.074219 L 203.328125 327.453125 L 210.988281 319.796875 L 228.226562 337.035156 Z M 632.816406 316.921875 C 632.285156 316.390625 631.429688 316.390625 630.894531 316.921875 L 630.894531 316.914062 L 612.132812 335.679688 L 548.042969 335.679688 L 529.277344 316.914062 C 528.746094 316.382812 527.890625 316.382812 527.363281 316.914062 L 518.742188 325.535156 L 510.121094 316.917969 C 509.59375 316.386719 508.734375 316.386719 508.203125 316.917969 L 489.441406 335.679688 L 397.019531 335.679688 L 413.867188 318.835938 C 414.390625 318.304688 414.390625 317.449219 413.867188 316.921875 C 413.335938 316.390625 412.476562 316.390625 411.945312 316.921875 L 411.945312 316.914062 L 392.789062 336.074219 C 392.667969 336.195312 392.582031 336.332031 392.515625 336.476562 C 392.507812 336.488281 392.503906 336.496094 392.5 336.507812 C 392.464844 336.585938 392.441406 336.664062 392.421875 336.746094 C 392.421875 336.75 392.421875 336.757812 392.417969 336.761719 C 392.382812 336.941406 392.382812 337.125 392.417969 337.304688 C 392.421875 337.324219 392.429688 337.339844 392.433594 337.359375 C 392.453125 337.425781 392.46875 337.492188 392.496094 337.554688 C 392.507812 337.585938 392.523438 337.609375 392.539062 337.636719 C 392.566406 337.6875 392.589844 337.742188 392.621094 337.789062 C 392.632812 337.808594 392.652344 337.824219 392.664062 337.839844 C 392.703125 337.894531 392.742188 337.945312 392.789062 337.992188 L 411.941406 357.148438 C 412.207031 357.410156 412.554688 357.542969 412.902344 357.542969 C 413.246094 357.542969 413.597656 357.410156 413.859375 357.148438 C 414.390625 356.621094 414.390625 355.757812 413.859375 355.226562 L 397.027344 338.390625 L 489.445312 338.390625 L 508.195312 357.152344 C 508.449219 357.398438 508.800781 357.546875 509.160156 357.546875 L 509.164062 357.546875 C 509.523438 357.546875 509.875 357.398438 510.125 357.152344 L 518.746094 348.527344 L 527.355469 357.140625 C 527.605469 357.398438 527.960938 357.539062 528.3125 357.539062 L 528.324219 357.539062 C 528.679688 357.539062 529.027344 357.398438 529.28125 357.140625 L 548.03125 338.390625 L 612.132812 338.390625 L 630.890625 357.148438 C 631.15625 357.410156 631.5 357.542969 631.851562 357.542969 C 632.199219 357.542969 632.542969 357.410156 632.808594 357.148438 C 633.339844 356.621094 633.339844 355.757812 632.808594 355.226562 L 614.613281 337.03125 L 632.816406 318.835938 C 633.339844 318.304688 633.339844 317.449219 632.816406 316.921875 Z M 509.164062 354.273438 L 491.921875 337.035156 L 509.160156 319.796875 L 516.820312 327.457031 L 508.203125 336.074219 C 507.671875 336.597656 507.671875 337.457031 508.203125 337.988281 L 516.828125 346.609375 Z M 518.742188 344.691406 L 511.082031 337.03125 L 518.738281 329.375 L 526.402344 337.035156 Z M 528.320312 354.269531 L 520.664062 346.613281 L 529.28125 337.992188 C 529.535156 337.738281 529.671875 337.398438 529.671875 337.035156 C 529.671875 336.671875 529.535156 336.328125 529.28125 336.074219 L 520.660156 327.453125 L 528.320312 319.792969 L 545.558594 337.03125 Z M 672.21875 311.332031 C 671.6875 310.800781 670.828125 310.800781 670.296875 311.332031 L 670.296875 311.324219 L 645.554688 336.074219 C 645.023438 336.601562 645.027344 337.464844 645.554688 337.996094 L 670.292969 362.734375 C 670.558594 362.996094 670.90625 363.128906 671.253906 363.128906 C 671.601562 363.128906 671.945312 362.996094 672.210938 362.734375 C 672.742188 362.207031 672.742188 361.347656 672.210938 360.8125 L 648.433594 337.03125 L 672.21875 313.246094 C 672.742188 312.714844 672.742188 311.855469 672.21875 311.332031 Z M 719.601562 336.074219 L 700.445312 316.917969 C 699.914062 316.386719 699.054688 316.386719 698.523438 316.917969 L 679.371094 336.074219 C 678.839844 336.605469 678.839844 337.460938 679.371094 337.992188 L 698.523438 357.152344 C 698.773438 357.398438 699.125 357.546875 699.484375 357.546875 L 699.492188 357.546875 C 699.847656 357.546875 700.195312 357.398438 700.449219 357.152344 L 719.601562 337.992188 C 719.863281 337.738281 720 337.398438 720 337.035156 C 720 336.671875 719.863281 336.328125 719.601562 336.074219 Z M 699.484375 354.273438 L 682.246094 337.035156 L 699.488281 319.796875 L 716.726562 337.035156 Z M 360.074219 294.179688 C 360.824219 294.179688 361.429688 293.574219 361.429688 292.824219 L 361.429688 264.171875 C 361.429688 263.417969 360.824219 262.8125 360.074219 262.8125 C 359.328125 262.8125 358.71875 263.417969 358.71875 264.171875 L 358.71875 292.824219 C 358.71875 293.574219 359.328125 294.179688 360.074219 294.179688 Z M 341.902344 296.710938 C 342.121094 297.234375 342.625 297.546875 343.160156 297.546875 C 343.332031 297.546875 343.507812 297.515625 343.675781 297.445312 C 344.367188 297.160156 344.695312 296.363281 344.410156 295.667969 L 337.761719 279.621094 C 337.472656 278.929688 336.675781 278.601562 335.988281 278.886719 C 335.296875 279.171875 334.96875 279.964844 335.253906 280.660156 Z M 327.855469 306.730469 C 328.117188 306.996094 328.464844 307.128906 328.8125 307.128906 C 329.164062 307.128906 329.507812 306.996094 329.769531 306.730469 C 330.300781 306.207031 330.300781 305.347656 329.769531 304.816406 L 317.496094 292.539062 C 316.96875 292.007812 316.109375 292.007812 315.582031 292.539062 C 315.050781 293.070312 315.046875 293.929688 315.578125 294.453125 Z M 327.859375 367.339844 L 315.574219 379.617188 C 315.042969 380.144531 315.042969 381.007812 315.574219 381.535156 C 315.839844 381.800781 316.1875 381.929688 316.535156 381.929688 C 316.878906 381.929688 317.226562 381.800781 317.492188 381.535156 L 329.769531 369.253906 C 330.300781 368.726562 330.300781 367.863281 329.777344 367.339844 C 329.242188 366.8125 328.386719 366.804688 327.859375 367.339844 Z M 343.679688 376.625 C 342.988281 376.335938 342.191406 376.667969 341.902344 377.359375 L 335.253906 393.417969 C 334.964844 394.105469 335.296875 394.902344 335.988281 395.1875 C 336.15625 395.257812 336.332031 395.292969 336.503906 395.292969 C 337.035156 395.292969 337.539062 394.976562 337.757812 394.453125 L 344.410156 378.394531 C 344.695312 377.703125 344.371094 376.914062 343.679688 376.625 Z M 360.078125 379.886719 C 359.328125 379.886719 358.722656 380.492188 358.722656 381.242188 L 358.71875 409.898438 C 358.71875 410.648438 359.324219 411.253906 360.070312 411.257812 C 360.820312 411.257812 361.425781 410.648438 361.429688 409.898438 L 361.4375 381.242188 C 361.4375 380.492188 360.824219 379.886719 360.078125 379.886719 Z M 378.246094 377.355469 C 377.964844 376.667969 377.171875 376.339844 376.476562 376.625 C 375.785156 376.914062 375.457031 377.703125 375.742188 378.394531 L 382.386719 394.445312 C 382.601562 394.96875 383.109375 395.285156 383.640625 395.285156 C 383.8125 395.285156 383.992188 395.25 384.164062 395.179688 C 384.851562 394.898438 385.179688 394.101562 384.898438 393.410156 Z M 392.296875 367.335938 C 391.765625 366.804688 390.902344 366.804688 390.375 367.335938 C 389.851562 367.863281 389.84375 368.722656 390.375 369.25 L 402.660156 381.539062 C 402.925781 381.800781 403.273438 381.933594 403.621094 381.933594 C 403.964844 381.933594 404.3125 381.800781 404.578125 381.539062 C 405.105469 381.011719 405.105469 380.144531 404.578125 379.621094 Z M 391.335938 307.128906 C 391.683594 307.128906 392.03125 306.996094 392.296875 306.730469 L 404.574219 294.453125 C 405.101562 293.921875 405.101562 293.0625 404.574219 292.53125 C 404.042969 292.007812 403.183594 292.007812 402.652344 292.53125 L 390.375 304.808594 C 389.851562 305.339844 389.851562 306.199219 390.375 306.730469 C 390.640625 306.996094 390.988281 307.128906 391.335938 307.128906 Z M 376.472656 297.441406 C 376.640625 297.511719 376.816406 297.546875 376.992188 297.546875 C 377.523438 297.546875 378.027344 297.230469 378.242188 296.707031 L 384.894531 280.652344 C 385.179688 279.964844 384.847656 279.167969 384.15625 278.882812 C 383.46875 278.601562 382.671875 278.925781 382.386719 279.617188 L 375.738281 295.667969 C 375.449219 296.359375 375.78125 297.15625 376.472656 297.441406 Z M 376.472656 297.441406 " fill-opacity="1" fill-rule="nonzero"/></g></svg>