<svg xmlns="http://www.w3.org/2000/svg" xmlns:xlink="http://www.w3.org/1999/xlink" zoomAndPan="magnify" preserveAspectRatio="xMidYMid meet" version="1.0" viewBox="2.86 352.9 714.28 45.81"><defs><clipPath id="2af687b95d"><path d="M 2.855469 352.113281 L 716.855469 352.113281 L 716.855469 399 L 2.855469 399 Z M 2.855469 352.113281 " clip-rule="nonzero"/></clipPath></defs><g clip-path="url(#2af687b95d)"><path fill="#d28080" d="M 278.488281 363.277344 C 277.054688 362.050781 274.703125 362.050781 273.269531 363.277344 L 261.222656 373.574219 C 259.789062 374.800781 259.789062 376.808594 261.222656 378.035156 L 273.269531 388.328125 C 274.703125 389.558594 277.054688 389.558594 278.488281 388.328125 L 290.539062 378.035156 C 291.972656 376.808594 291.972656 374.800781 290.539062 373.574219 Z M 364.4375 354.464844 C 361.996094 352.375 357.992188 352.375 355.546875 354.464844 L 335.03125 372.003906 C 332.589844 374.097656 332.589844 377.515625 335.03125 379.609375 L 355.546875 397.136719 C 357.992188 399.230469 361.996094 399.230469 364.4375 397.136719 L 384.964844 379.609375 C 387.410156 377.515625 387.410156 374.097656 384.964844 372.003906 Z M 242.351562 369.195312 C 238.703125 369.195312 235.746094 372.152344 235.746094 375.800781 C 235.746094 379.453125 238.703125 382.410156 242.351562 382.410156 C 246.003906 382.410156 248.960938 379.453125 248.960938 375.800781 C 248.960938 372.152344 246.003906 369.195312 242.351562 369.195312 Z M 309.40625 369.195312 C 305.757812 369.195312 302.796875 372.152344 302.796875 375.800781 C 302.796875 379.453125 305.757812 382.410156 309.40625 382.410156 C 313.058594 382.410156 316.015625 379.453125 316.015625 375.800781 C 316.015625 372.152344 313.058594 369.195312 309.40625 369.195312 Z M 214.085938 371.09375 C 211.484375 371.09375 209.375 373.199219 209.375 375.800781 C 209.375 378.40625 211.484375 380.515625 214.085938 380.515625 C 216.6875 380.515625 218.796875 378.40625 218.796875 375.800781 C 218.796875 373.199219 216.6875 371.09375 214.085938 371.09375 Z M 2.855469 375.800781 L 190.113281 380.175781 L 185.734375 375.800781 L 190.113281 371.429688 Z M 446.726562 363.277344 C 445.289062 362.050781 442.9375 362.050781 441.503906 363.277344 L 429.457031 373.570312 C 428.019531 374.800781 428.019531 376.808594 429.457031 378.035156 L 441.503906 388.328125 C 442.9375 389.558594 445.289062 389.558594 446.726562 388.328125 L 458.769531 378.035156 C 460.207031 376.808594 460.207031 374.800781 458.769531 373.570312 Z M 477.644531 369.195312 C 473.992188 369.195312 471.035156 372.152344 471.035156 375.800781 C 471.035156 379.453125 473.992188 382.410156 477.644531 382.410156 C 481.289062 382.410156 484.246094 379.453125 484.246094 375.800781 C 484.246094 372.152344 481.289062 369.195312 477.644531 369.195312 Z M 410.585938 369.195312 C 406.9375 369.195312 403.976562 372.152344 403.976562 375.800781 C 403.976562 379.453125 406.9375 382.410156 410.585938 382.410156 C 414.238281 382.410156 417.195312 379.453125 417.195312 375.800781 C 417.195312 372.152344 414.238281 369.195312 410.585938 369.195312 Z M 505.914062 371.09375 C 503.304688 371.09375 501.195312 373.199219 501.195312 375.800781 C 501.195312 378.402344 503.304688 380.515625 505.914062 380.515625 C 508.511719 380.515625 510.621094 378.402344 510.621094 375.800781 C 510.621094 373.199219 508.511719 371.09375 505.914062 371.09375 Z M 717.136719 375.800781 L 529.882812 371.429688 L 534.257812 375.800781 L 529.882812 380.175781 Z M 717.136719 375.800781 " fill-opacity="1" fill-rule="nonzero"/></g></svg>